<!-- icon666.com - MILLIONS vector ICONS FREE --><svg viewBox="0 0 64 64" xmlns="http://www.w3.org/2000/svg"><g id="Layer_32" data-name="Layer 32"><path d="m52.78 37.65-3.61-10.73a.59.59 0 0 0 -.57-.41h-6.26l-9.74-8.62v-2.61h5.75a.6.6 0 0 0 .6-.6v-3.87a.6.6 0 0 0 -.6-.6h-6.35a.6.6 0 0 0 -.6.6v7.08l-9.74 8.62h-6.26a.59.59 0 0 0 -.57.41l-3.61 10.73a.61.61 0 0 0 .08.54.6.6 0 0 0 .49.25h2.37v10.15h-1.37a.6.6 0 1 0 0 1.2h38.42a.6.6 0 0 0 0-1.2h-1.37v-10.15h2.37a.6.6 0 0 0 .49-.25.61.61 0 0 0 .08-.54zm-11.27-6.35h-19v-3.92l9.49-8.38 9.51 8.42zm-3.76-17.22h-5.15v-2.67h5.15zm-21.92 13.63h5.46v9.53h-8.67zm-.47 10.73h5.93v10.15h-5.93zm11.64 10.15v-6.92h10v6.92zm11.24 0v-7.52a.6.6 0 0 0 -.6-.6h-11.26a.6.6 0 0 0 -.6.6v7.52h-3.29v-16.09h19v16.09zm10.42 0h-5.95v-10.15h5.93zm-5.95-11.35v-9.53h5.46l3.21 9.53z" fill="#000000" style="fill: rgb(255, 255, 255);"></path><path d="m29.43 27.11a2.57 2.57 0 1 0 2.57-2.57 2.57 2.57 0 0 0 -2.57 2.57zm3.94 0a1.37 1.37 0 1 1 -1.37-1.37 1.37 1.37 0 0 1 1.37 1.37z" fill="#000000" style="fill: rgb(255, 255, 255);"></path><path d="m32 60.6a28.6 28.6 0 1 1 28.6-28.6 28.63 28.63 0 0 1 -28.6 28.6zm0-56a27.4 27.4 0 1 0 27.4 27.4 27.43 27.43 0 0 0 -27.4-27.4z" fill="#000000" style="fill: rgb(255, 255, 255);"></path></g></svg>